{"title":"Last Will 2012 DVDRip XViD juggs","uid":8521764,"size":743766399,"categoryP":"video","categoryS":"movies","magnet":"?xt=urn:btih:b8a6df29d88f128526eb3411920df9248379b4dd&amp;dn=Last+Will+2012+DVDRip+XViD+juggs&amp;tr=udp%3A%2F%2Ftracker.openbittorrent.com%3A80&amp;tr=udp%3A%2F%2Fopen.demonii.com%3A1337&amp;tr=udp%3A%2F%2Ftracker.coppersurfer.tk%3A6969&amp;tr=udp%3A%2F%2Fexodus.desync.com%3A6969","seeders":1,"leechers":1,"uploader":"juggs99","files":3,"time":1369931367,"description":"Source : DVDR-TV2LAX9(Thanks)\n &lt;a href=&quot;\nhttp://www.imdb.com/title/tt1312222/&quot; rel=&quot;nofollow&quot; target=&quot;_NEW&quot;&gt;\nhttp://www.imdb.com/title/tt1312222/&lt;/a&gt;\n\nFormat                                   : AVI\nFormat/Info                              : Audio Video Interleave\nFile size                                : 697 MiB\nDuration                                 : 1h 38mn\nOverall bit rate                         : 989 Kbps\nWriting library                          : VirtualDub build 32842/release\n\nVideo\nID                                       : 0\nFormat                                   : MPEG-4 Visual\nFormat profile                           : Advanced Simple@L5\nFormat settings, BVOP                    : 2\nFormat settings, QPel                    : No\nFormat settings, GMC                     : No warppoints\nFormat settings, Matrix                  : Default (H.263)\nMuxing mode                              : Packed bitstream\nCodec ID                                 : XVID\nCodec ID/Hint                            : XviD\nDuration                                 : 1h 38mn\nBit rate                                 : 851 Kbps\nWidth                                    : 640 pixels\nHeight                                   : 352 pixels\nDisplay aspect ratio                     : 16:9\nFrame rate                               : 25.000 fps\nColor space                              : YUV\nChroma subsampling                       : 4:2:0\nBit depth                                : 8 bits\nScan type                                : Progressive\nCompression mode                         : Lossy\nBits/(Pixel*Frame)                       : 0.151\nStream size                              : 600 MiB (86%)\nWriting library                          : XviD 64\n\nAudio\nID                                       : 1\nFormat                                   : MPEG Audio\nFormat version                           : Version 1\nFormat profile                           : Layer 3\nCodec ID                                 : 55\nCodec ID/Hint                            : MP3\nDuration                                 : 1h 38mn\nBit rate mode                            : Constant\nBit rate                                 : 128 Kbps\nChannel(s)                               : 2 channels\nSampling rate                            : 48.0 KHz\nCompression mode                         : Lossy\nStream size                              : 90.2 MiB (13%)\nAlignment                                : Split accross interleaves\nInterleave, duration                     : 40 ms (1.00 video frame)\nInterleave, preload duration             : 500 ms\nWriting library                          : LAME3.99r\nEncoding settings                        : -m s -V 4 -q 3 -lowpass 17 -b 128\n\nPlot\nAn affluent woman is framed for the murder of her husband and faces a mountain of evidence stacked against her. Undeterred, she begins to put the pieces of the true story together.\n &lt;a href=&quot;\nhttp://www.shotpix.com/images/35653078381060778819.png&quot; rel=&quot;nofollow&quot; target=&quot;_NEW&quot;&gt;\nhttp://www.shotpix.com/images/35653078381060778819.png&lt;/a&gt; &lt;a href=&quot;\nhttp://www.shotpix.com/images/94421403305580116873.png&quot; rel=&quot;nofollow&quot; target=&quot;_NEW&quot;&gt;\nhttp://www.shotpix.com/images/94421403305580116873.png&lt;/a&gt; &lt;a href=&quot;\nhttp://www.shotpix.com/images/88874761693290895951.png&quot; rel=&quot;nofollow&quot; target=&quot;_NEW&quot;&gt;\nhttp://www.shotpix.com/images/88874761693290895951.png&lt;/a&gt;","torrent":{"xt":"urn:btih:b8a6df29d88f128526eb3411920df9248379b4dd","amp;dn":"Last+Will+2012+DVDRip+XViD+juggs","amp;tr":["udp%3A%2F%2Ftracker.openbittorrent.com%3A80","udp%3A%2F%2Fopen.demonii.com%3A1337","udp%3A%2F%2Ftracker.coppersurfer.tk%3A6969","udp%3A%2F%2Fexodus.desync.com%3A6969"],"infoHash":"b8a6df29d88f128526eb3411920df9248379b4dd","infoHashBuffer":{"type":"Buffer","data":[184,166,223,41,216,143,18,133,38,235,52,17,146,13,249,36,131,121,180,221]},"announce":[],"urlList":[]}}